<svg xmlns="http://www.w3.org/2000/svg" xmlns:xlink="http://www.w3.org/1999/xlink" width="50" height="50" viewBox="0 0 50 50">
  <defs>
    <linearGradient id="linear-gradient" x1="0.633" x2="0.207" y2="1" gradientUnits="objectBoundingBox">
      <stop offset="0" stop-color="#4c64d3"/>
      <stop offset="0.331" stop-color="#cf2e92"/>
      <stop offset="0.661" stop-color="#f26939"/>
      <stop offset="1" stop-color="#ffdd83"/>
    </linearGradient>
    <clipPath id="clip-path">
      <rect id="長方形_29" data-name="長方形 29" width="50" height="50" transform="translate(368 7709)" fill="url(#linear-gradient)"/>
    </clipPath>
  </defs>
  <g id="マスクグループ_3" data-name="マスクグループ 3" transform="translate(-368 -7709)" clip-path="url(#clip-path)">
    <path id="instagram-icon" d="M25,15.728A12.817,12.817,0,1,0,37.814,28.544,12.8,12.8,0,0,0,25,15.728Zm0,21.149a8.332,8.332,0,1,1,8.332-8.332A8.348,8.348,0,0,1,25,36.877ZM41.327,15.2a2.989,2.989,0,1,1-2.989-2.989A2.982,2.982,0,0,1,41.327,15.2Zm8.489,3.034c-.19-4-1.1-7.552-4.038-10.474S39.308,3.926,35.3,3.726c-4.127-.234-16.5-.234-20.625,0-3.993.19-7.54,1.1-10.474,4.027S.368,14.222.167,18.226c-.234,4.127-.234,16.5,0,20.625.19,4,1.1,7.552,4.038,10.474s6.47,3.837,10.474,4.038c4.127.234,16.5.234,20.625,0,4-.19,7.552-1.1,10.474-4.038s3.837-6.47,4.038-10.474c.234-4.127.234-16.486,0-20.613ZM44.484,43.279a8.436,8.436,0,0,1-4.752,4.752c-3.291,1.305-11.1,1-14.735,1s-11.456.29-14.735-1A8.436,8.436,0,0,1,5.51,43.279c-1.305-3.291-1-11.1-1-14.735s-.29-11.456,1-14.735a8.436,8.436,0,0,1,4.752-4.752c3.291-1.305,11.1-1,14.735-1s11.456-.29,14.735,1a8.436,8.436,0,0,1,4.752,4.752c1.305,3.291,1,11.1,1,14.735S45.789,40,44.484,43.279Z" transform="translate(368.008 7705.456)" fill="url(#linear-gradient)"/>
  </g>
</svg>
