<svg xmlns="http://www.w3.org/2000/svg" xmlns:xlink="http://www.w3.org/1999/xlink" width="50" height="50" viewBox="0 0 50 50">
  <defs>
    <clipPath id="clip-path">
      <rect id="長方形_29" data-name="長方形 29" width="50" height="50" transform="translate(241 7709)" fill="#00b900"/>
    </clipPath>
  </defs>
  <g id="マスクグループ_2" data-name="マスクグループ 2" transform="translate(-241 -7709)" clip-path="url(#clip-path)">
    <path id="line-icon" d="M30.368,22.79v7.935a.353.353,0,0,1-.357.357H28.739a.369.369,0,0,1-.29-.145L24.81,26.027v4.71a.353.353,0,0,1-.357.357H23.181a.353.353,0,0,1-.357-.357V22.8a.353.353,0,0,1,.357-.357h1.261a.337.337,0,0,1,.29.156l3.638,4.911V22.8a.353.353,0,0,1,.357-.357H30a.353.353,0,0,1,.368.346Zm-9.152-.357H19.944a.353.353,0,0,0-.357.357v7.935a.353.353,0,0,0,.357.357h1.272a.353.353,0,0,0,.357-.357V22.79a.36.36,0,0,0-.357-.357Zm-3.069,6.652H14.676V22.79a.353.353,0,0,0-.357-.357H13.047a.353.353,0,0,0-.357.357v7.935a.328.328,0,0,0,.1.246.376.376,0,0,0,.246.1h5.1a.353.353,0,0,0,.357-.357V29.442a.357.357,0,0,0-.346-.357Zm18.917-6.652h-5.1a.36.36,0,0,0-.357.357v7.935a.36.36,0,0,0,.357.357h5.1a.353.353,0,0,0,.357-.357V29.453a.353.353,0,0,0-.357-.357H33.594V27.757h3.471a.353.353,0,0,0,.357-.357V26.116a.353.353,0,0,0-.357-.357H33.594V24.42h3.471a.353.353,0,0,0,.357-.357V22.79a.375.375,0,0,0-.357-.357ZM50,12.69V44.531a9.091,9.091,0,0,1-9.118,9.04H9.04A9.1,9.1,0,0,1,0,44.453V12.612a9.1,9.1,0,0,1,9.118-9.04H40.96A9.091,9.091,0,0,1,50,12.69ZM43.125,26.373c0-8.147-8.17-14.777-18.2-14.777s-18.2,6.629-18.2,14.777c0,7.3,6.473,13.415,15.223,14.576,2.132.458,1.886,1.239,1.406,4.107-.078.458-.368,1.8,1.574.982S35.4,39.866,39.23,35.469C41.864,32.567,43.125,29.632,43.125,26.373Z" transform="translate(241 7705.429)" fill="#00b900"/>
  </g>
</svg>
