<svg xmlns="http://www.w3.org/2000/svg" xmlns:xlink="http://www.w3.org/1999/xlink" width="50" height="50" viewBox="0 0 50 50">
  <defs>
    <clipPath id="clip-path">
      <rect id="長方形_29" data-name="長方形 29" width="50" height="50" transform="translate(100 7709)" fill="#1877f2"/>
    </clipPath>
  </defs>
  <g id="マスクグループ_1" data-name="マスクグループ 1" transform="translate(-100 -7709)" clip-path="url(#clip-path)">
    <path id="twitter-icon" d="M44.861,14.816c.032.444.032.888.032,1.333C44.892,29.7,34.581,45.3,15.736,45.3A28.958,28.958,0,0,1,0,40.7a21.2,21.2,0,0,0,2.475.127A20.523,20.523,0,0,0,15.2,36.453a10.266,10.266,0,0,1-9.581-7.107,12.923,12.923,0,0,0,1.935.159,10.838,10.838,0,0,0,2.7-.349A10.249,10.249,0,0,1,2.03,19.1v-.127a10.32,10.32,0,0,0,4.632,1.3A10.263,10.263,0,0,1,3.49,6.567,29.128,29.128,0,0,0,24.619,17.291a11.568,11.568,0,0,1-.254-2.348A10.257,10.257,0,0,1,42.1,7.932a20.175,20.175,0,0,0,6.5-2.475A10.22,10.22,0,0,1,44.1,11.1,20.543,20.543,0,0,0,50,9.518a22.028,22.028,0,0,1-5.139,5.3Z" transform="translate(100 7709)" fill="#1877f2"/>
  </g>
</svg>
